<svg t="1783158344217" class="icon" viewBox="0 0 1024 1024" version="1.1" xmlns="http://www.w3.org/2000/svg" p-id="3665" width="200" height="200"><path d="M34.112 426.176c9.024 0 17.728 3.456 24.128 9.664a32.64 32.64 0 0 1 10.048 23.424v66.304a33.664 33.664 0 0 1-34.112 33.152A33.664 33.664 0 0 1 0 525.568V459.264c0-18.304 15.296-33.088 34.112-33.088z m955.776 0c18.816 0 34.112 14.784 34.112 33.088v66.304a33.664 33.664 0 0 1-34.176 33.152 33.664 33.664 0 0 1-34.112-33.152V459.264a32.64 32.64 0 0 1 10.048-23.424 34.624 34.624 0 0 1 24.128-9.664zM136.512 359.872c9.088 0 17.792 3.456 24.192 9.664 6.4 6.208 9.984 14.72 9.984 23.488v198.784a33.664 33.664 0 0 1-34.112 33.152 33.664 33.664 0 0 1-34.176-33.152V392.96c0-8.768 3.584-17.28 9.984-23.424a34.624 34.624 0 0 1 24.128-9.728z m750.976 0c18.88 0 34.112 14.848 34.112 33.152v198.784a33.664 33.664 0 0 1-34.112 33.152 33.664 33.664 0 0 1-34.176-33.152V392.96a32.64 32.64 0 0 1 9.984-23.488 34.688 34.688 0 0 1 24.192-9.664z m-614.4 364.48h477.824V260.48H273.088v463.872z m0-530.112h477.824c37.76 0 68.288 29.696 68.288 66.24v463.872c0 36.544-30.528 66.24-68.288 66.24H273.088c-18.112 0-35.456-6.976-48.256-19.392a65.28 65.28 0 0 1-20.032-46.848V260.48c0-36.48 30.592-66.24 68.288-66.24z" fill="#000000" p-id="3666"></path><path d="M648.512 525.568c18.304 0 35.2-9.472 44.352-24.832a48.448 48.448 0 0 0 0-49.728 51.52 51.52 0 0 0-44.352-24.832c-28.288 0-51.2 22.272-51.2 49.664 0 27.52 22.912 49.728 51.2 49.728zM375.488 525.568c18.304 0 35.2-9.472 44.352-24.832a48.448 48.448 0 0 0 0-49.728 51.52 51.52 0 0 0-44.352-24.832c-28.288 0-51.2 22.272-51.2 49.664 0 27.52 22.912 49.728 51.2 49.728z" fill="#3070FF" p-id="3667"></path><path d="M512 128c18.816 0 34.112 14.848 34.112 33.088v66.304a32.896 32.896 0 0 1-17.088 28.672 35.008 35.008 0 0 1-34.048 0 32.96 32.96 0 0 1-17.088-28.672V161.088C477.888 142.848 493.184 128 512 128z" fill="#000000" p-id="3668"></path></svg>
